<svg width="47" height="47" viewBox="0 0 47 47" fill="none" xmlns="http://www.w3.org/2000/svg">
<path d="M33.1429 10H13.8571C11.7255 10 10 11.7255 10 13.8571V33.1429C10 35.2751 11.7249 37 13.8571 37H33.1429C35.2751 37 37 35.2751 37 33.1429V13.8571C37 11.7255 35.2763 10 33.1429 10ZM33.1429 28.3214C33.1429 29.3864 32.2792 30.25 31.2143 30.25H15.7857C14.7208 30.25 13.8571 29.3864 13.8571 28.3214V21.6859L22.2042 25.8607C22.6141 26.0614 23.054 26.1638 23.5 26.1638C23.946 26.1638 24.389 26.0621 24.794 25.8597L33.1429 21.6859V28.3214ZM33.1429 19.5283L23.9339 24.134C23.6627 24.2696 23.3426 24.2696 23.0715 24.134L13.8571 19.5283V18.6786C13.8571 17.6136 14.7208 16.75 15.7857 16.75H31.2143C32.2792 16.75 33.1429 17.6136 33.1429 18.6786V19.5283Z" fill="#F0F0F0"/>
</svg>
