<svg width="47" height="47" viewBox="0 0 47 47" fill="none" xmlns="http://www.w3.org/2000/svg">
<path d="M34.1071 10H12.8929C12.1256 10 11.3898 10.3048 10.8473 10.8473C10.3048 11.3898 10 12.1256 10 12.8929V34.1071C10 34.8744 10.3048 35.6102 10.8473 36.1527C11.3898 36.6952 12.1256 37 12.8929 37H21.1646V27.8206H17.3677V23.5H21.1646V20.207C21.1646 16.4613 23.3945 14.3923 26.8099 14.3923C28.4456 14.3923 30.156 14.684 30.156 14.684V18.3604H28.2714C26.4146 18.3604 25.8354 19.5127 25.8354 20.6945V23.5H29.9806L29.3177 27.8206H25.8354V37H34.1071C34.8744 37 35.6102 36.6952 36.1527 36.1527C36.6952 35.6102 37 34.8744 37 34.1071V12.8929C37 12.1256 36.6952 11.3898 36.1527 10.8473C35.6102 10.3048 34.8744 10 34.1071 10Z" fill="#F0F0F0"/>
</svg>
