<svg width="43" height="55" viewBox="0 0 43 55" fill="none" xmlns="http://www.w3.org/2000/svg">
<g clip-path="url(#clip0_4_279)">
<path d="M19.7702 54.862C29.597 54.862 37.5633 53.9216 37.5633 52.7615C37.5633 51.6013 29.597 50.6609 19.7702 50.6609C9.9433 50.6609 1.97705 51.6013 1.97705 52.7615C1.97705 53.9216 9.9433 54.862 19.7702 54.862Z" fill="#B2784A"/>
<path fill-rule="evenodd" clip-rule="evenodd" d="M38.0352 39.9178C39.0289 37.3692 39.5402 34.6377 39.5402 31.8793H36.4264C36.4264 34.2158 35.9969 36.5297 35.1624 38.6883C34.3278 40.8472 33.1045 42.8087 31.5625 44.461C30.0202 46.1132 28.1894 47.4237 26.1746 48.3179C24.1599 49.2122 22.0004 49.6723 19.8195 49.6723C17.6387 49.6723 15.4792 49.2122 13.4644 48.3179C11.4495 47.4237 9.61877 46.1132 8.07668 44.461C6.53459 42.8087 5.31134 40.8472 4.47677 38.6883C3.6422 36.5297 3.21264 34.2158 3.21264 31.8793H0C0 34.6377 0.511369 37.3692 1.50491 39.9178C2.49845 42.4664 3.95471 44.782 5.79054 46.7325C7.62634 48.6831 9.8058 50.2304 12.2044 51.2861C14.603 52.3416 17.1738 52.885 19.7701 52.885C22.3664 52.885 24.9373 52.3416 27.3359 51.2861C29.7345 50.2304 31.9139 48.6831 33.7498 46.7325C35.5854 44.782 37.0418 42.4664 38.0352 39.9178Z" fill="#B2784A"/>
<path fill-rule="evenodd" clip-rule="evenodd" d="M33.5387 38.0263C34.2761 36.119 34.6634 34.0777 34.6795 32.0142C32.9834 32.2804 29.2795 32.9291 26.8132 33.8563C24.8544 34.5927 23.5212 35.8684 22.244 37.0904C20.5867 38.6762 19.0237 40.1718 16.3103 40.2816C14.154 40.3688 12.8353 40.1921 10.8735 39.2931C7.44722 37.7231 4.69531 31.8793 4.69531 31.8793C4.69531 33.9887 5.0831 36.0774 5.83654 38.0263C6.58998 39.9754 7.6943 41.746 9.08648 43.2377C10.4786 44.7293 12.1314 45.9126 13.9503 46.7197C15.7693 47.5271 17.7188 47.9425 19.6877 47.9425C21.6565 47.9425 23.6061 47.5271 25.4251 46.7197C27.2439 45.9126 28.8967 44.7293 30.2888 43.2377C31.6811 41.746 32.7855 39.9754 33.5387 38.0263Z" fill="#8F542E"/>
<path fill-rule="evenodd" clip-rule="evenodd" d="M41.077 36.2467C40.4881 35.6637 39.7848 35.2095 39.0115 34.9127L36.8667 40.4998L33.8137 45.6471C34.5262 46.0697 35.3187 46.3398 36.1412 46.4402C36.9634 46.5408 37.7976 46.4693 38.5909 46.2306C39.3842 45.9919 40.1194 45.591 40.7498 45.0535C41.3802 44.516 41.892 43.8535 42.2531 43.1079C42.6141 42.3623 42.8165 41.5498 42.8472 40.7219C42.8781 39.894 42.7365 39.0689 42.4318 38.2986C42.1271 37.5281 41.6657 36.8294 41.077 36.2467ZM39.6303 38.1221C39.2849 37.7801 38.8719 37.5135 38.4179 37.3393L37.1591 40.6189L35.3669 43.6402C35.7853 43.8883 36.2504 44.0468 36.733 44.1058C37.2159 44.1646 37.7055 44.1229 38.1711 43.9828C38.6369 43.8426 39.0684 43.6074 39.4383 43.2918C39.8085 42.9765 40.109 42.5875 40.3208 42.1498C40.5328 41.7122 40.6515 41.2352 40.6695 40.7494C40.6876 40.2633 40.6045 39.7789 40.4256 39.3266C40.2469 38.8744 39.9761 38.4644 39.6303 38.1221Z" fill="#B2784A"/>
<path d="M14.3344 7.41382C14.3344 7.41382 13.712 11.1873 14.3344 13.4684C15.3607 17.2303 20.2956 17.1509 20.8832 21.0057C21.4288 24.5848 17.547 29.6551 17.547 29.6551C17.547 29.6551 18.1394 26.1104 17.547 23.9712C16.562 20.4144 12.0662 20.5264 11.2453 16.9282C10.3763 13.1195 14.3344 7.41382 14.3344 7.41382Z" fill="#8F542E"/>
<path d="M16.3103 11.3678C15.0046 6.88458 20.0172 0 20.0172 0C20.0172 0 18.0648 6.06244 19.2758 9.6379C20.5462 13.389 25.3334 13.1862 26.1953 17.0517C27.2063 21.5851 21.3764 27.9252 21.3764 27.9252C21.3764 27.9252 24.3612 22.1441 23.3534 18.5344C22.2981 14.7549 17.4075 15.1353 16.3103 11.3678Z" fill="#8F542E"/>
</g>
<defs>
<clipPath id="clip0_4_279">
<rect width="43" height="54.862" fill="white"/>
</clipPath>
</defs>
</svg>
