<svg width="70" height="70" viewBox="0 0 70 70" fill="none" xmlns="http://www.w3.org/2000/svg">
<path d="M54.6429 10H15.3571C13.9363 10 12.5737 10.5644 11.5691 11.5691C10.5644 12.5737 10 13.9363 10 15.3571V54.6429C10 56.0637 10.5644 57.4263 11.5691 58.4309C12.5737 59.4356 13.9363 60 15.3571 60H30.6752V43.0011H23.644V35H30.6752V28.9018C30.6752 21.9654 34.8047 18.1339 41.1295 18.1339C44.1585 18.1339 47.3259 18.6741 47.3259 18.6741V25.4821H43.8359C40.3973 25.4821 39.3248 27.6161 39.3248 29.8047V35H47.0011L45.7734 43.0011H39.3248V60H54.6429C56.0637 60 57.4263 59.4356 58.4309 58.4309C59.4356 57.4263 60 56.0637 60 54.6429V15.3571C60 13.9363 59.4356 12.5737 58.4309 11.5691C57.4263 10.5644 56.0637 10 54.6429 10Z" fill="#8F542E"/>
</svg>
