<svg width="70" height="70" viewBox="0 0 70 70" fill="none" xmlns="http://www.w3.org/2000/svg">
<path d="M35 29.0469C33.8227 29.0473 32.6719 29.3968 31.6932 30.0512C30.7145 30.7056 29.9519 31.6356 29.5016 32.7234C29.0514 33.8112 28.9338 35.0081 29.1638 36.1628C29.3937 37.3174 29.9609 38.3779 30.7935 39.2103C31.6262 40.0426 32.6869 40.6094 33.8417 40.8389C34.9964 41.0684 36.1932 40.9504 37.2809 40.4998C38.3686 40.0491 39.2982 39.2861 39.9522 38.3071C40.6063 37.3282 40.9554 36.1773 40.9554 35C40.9542 33.4211 40.3263 31.9073 39.2096 30.791C38.093 29.6748 36.5789 29.0475 35 29.0469ZM48.9185 24.471C48.6155 23.7029 48.1578 23.0054 47.574 22.4215C46.9902 21.8377 46.2926 21.3801 45.5246 21.077C43.1808 20.1518 37.6004 20.3594 35 20.3594C32.3996 20.3594 26.8248 20.144 24.4743 21.077C23.7063 21.3801 23.0087 21.8377 22.4249 22.4215C21.8411 23.0054 21.3834 23.7029 21.0804 24.471C20.1562 26.8147 20.3627 32.4007 20.3627 34.9989C20.3627 37.5971 20.1562 43.1763 21.0848 45.5279C21.3879 46.2959 21.8455 46.9935 22.4294 47.5773C23.0132 48.1612 23.7108 48.6188 24.4788 48.9219C26.8225 49.8471 32.4029 49.6395 35.0045 49.6395C37.606 49.6395 43.1786 49.8549 45.529 48.9219C46.2971 48.6188 46.9946 48.1612 47.5785 47.5773C48.1623 46.9935 48.6199 46.2959 48.923 45.5279C49.8549 43.1842 49.6406 37.5982 49.6406 35C49.6406 32.4018 49.8549 26.8237 48.923 24.4721L48.9185 24.471ZM35 44.1518C33.1899 44.1518 31.4205 43.615 29.9155 42.6094C28.4105 41.6038 27.2375 40.1745 26.5449 38.5022C25.8522 36.83 25.6709 34.9898 26.0241 33.2146C26.3772 31.4393 27.2488 29.8086 28.5287 28.5287C29.8086 27.2488 31.4393 26.3772 33.2146 26.0241C34.9898 25.6709 36.83 25.8522 38.5022 26.5449C40.1745 27.2375 41.6038 28.4105 42.6094 29.9155C43.615 31.4205 44.1518 33.1899 44.1518 35C44.1533 36.2022 43.9175 37.393 43.4581 38.504C42.9987 39.615 42.3247 40.6245 41.4746 41.4746C40.6245 42.3247 39.615 42.9987 38.504 43.4581C37.393 43.9175 36.2022 44.1533 35 44.1518ZM44.529 27.6004C44.1065 27.6007 43.6934 27.4756 43.3419 27.241C42.9905 27.0064 42.7165 26.6728 42.5547 26.2825C42.3928 25.8922 42.3504 25.4627 42.4327 25.0482C42.5149 24.6338 42.7183 24.253 43.017 23.9542C43.3157 23.6553 43.6963 23.4518 44.1107 23.3693C44.5252 23.2867 44.9547 23.329 45.3451 23.4906C45.7355 23.6523 46.0692 23.9261 46.304 24.2774C46.5387 24.6287 46.6641 25.0417 46.6641 25.4643C46.6652 25.7449 46.611 26.0229 46.5045 26.2825C46.3979 26.5421 46.2412 26.7781 46.0433 26.977C45.8453 27.1759 45.6101 27.3337 45.351 27.4415C45.0919 27.5492 44.8141 27.6048 44.5335 27.6049L44.529 27.6004ZM54.6429 10H15.3571C13.9363 10 12.5737 10.5644 11.5691 11.5691C10.5644 12.5737 10 13.9363 10 15.3571V54.6429C10 56.0637 10.5644 57.4263 11.5691 58.4309C12.5737 59.4356 13.9363 60 15.3571 60H54.6429C56.0637 60 57.4263 59.4356 58.4309 58.4309C59.4356 57.4263 60 56.0637 60 54.6429V15.3571C60 13.9363 59.4356 12.5737 58.4309 11.5691C57.4263 10.5644 56.0637 10 54.6429 10ZM52.7321 42.3661C52.5882 45.2266 51.9353 47.7612 49.8471 49.8438C47.7589 51.9263 45.2266 52.5926 42.3694 52.7288C39.4219 52.8951 30.5848 52.8951 27.6373 52.7288C24.7768 52.5848 22.2511 51.9308 20.1596 49.8438C18.0681 47.7567 17.4107 45.221 17.2746 42.3661C17.1083 39.4174 17.1083 30.5792 17.2746 27.6339C17.4185 24.7734 18.0636 22.2388 20.1596 20.1562C22.2556 18.0737 24.7879 17.4152 27.6373 17.279C30.5848 17.1127 39.4219 17.1127 42.3694 17.279C45.2299 17.423 47.7634 18.077 49.8471 20.1641C51.9308 22.2511 52.596 24.7868 52.7321 27.6473C52.8984 30.5848 52.8984 39.4152 52.7321 42.3661Z" fill="#8F542E"/>
</svg>
