<svg width="47" height="47" viewBox="0 0 47 47" fill="none" xmlns="http://www.w3.org/2000/svg">
<path d="M23.5 20.2853C22.8642 20.2856 22.2428 20.4743 21.7143 20.8277C21.1859 21.1811 20.774 21.6832 20.5309 22.2706C20.2877 22.8581 20.2243 23.5044 20.3484 24.1279C20.4726 24.7514 20.7789 25.3241 21.2285 25.7736C21.6781 26.223 22.2509 26.5291 22.8745 26.653C23.498 26.7769 24.1444 26.7132 24.7317 26.4699C25.319 26.2265 25.821 25.8145 26.1742 25.2859C26.5274 24.7572 26.7159 24.1358 26.7159 23.5C26.7153 22.6474 26.3762 21.8299 25.7732 21.2272C25.1702 20.6244 24.3526 20.2856 23.5 20.2853ZM31.016 17.8143C30.8524 17.3996 30.6052 17.0229 30.29 16.7076C29.9747 16.3924 29.598 16.1452 29.1833 15.9816C27.9176 15.482 24.9042 15.5941 23.5 15.5941C22.0958 15.5941 19.0854 15.4777 17.8161 15.9816C17.4014 16.1452 17.0247 16.3924 16.7094 16.7076C16.3942 17.0229 16.147 17.3996 15.9834 17.8143C15.4844 19.08 15.5959 22.0964 15.5959 23.4994C15.5959 24.9024 15.4844 27.9152 15.9858 29.1851C16.1495 29.5998 16.3966 29.9765 16.7119 30.2918C17.0271 30.607 17.4038 30.8542 17.8185 31.0178C19.0842 31.5174 22.0976 31.4053 23.5024 31.4053C24.9073 31.4053 27.9164 31.5217 29.1857 31.0178C29.6004 30.8542 29.9771 30.607 30.2924 30.2918C30.6076 29.9765 30.8548 29.5998 31.0184 29.1851C31.5217 27.9194 31.4059 24.903 31.4059 23.5C31.4059 22.097 31.5217 19.0848 31.0184 17.8149L31.016 17.8143ZM23.5 28.442C22.5226 28.442 21.5671 28.1521 20.7544 27.6091C19.9417 27.0661 19.3083 26.2942 18.9342 25.3912C18.5602 24.4882 18.4623 23.4945 18.653 22.5359C18.8437 21.5772 19.3144 20.6966 20.0055 20.0055C20.6966 19.3144 21.5772 18.8437 22.5359 18.653C23.4945 18.4623 24.4882 18.5602 25.3912 18.9342C26.2942 19.3083 27.0661 19.9417 27.6091 20.7544C28.1521 21.5671 28.442 22.5226 28.442 23.5C28.4428 24.1492 28.3155 24.7922 28.0674 25.3921C27.8193 25.9921 27.4553 26.5372 26.9963 26.9963C26.5372 27.4553 25.9921 27.8193 25.3921 28.0674C24.7922 28.3155 24.1492 28.4428 23.5 28.442ZM28.6457 19.5042C28.4175 19.5044 28.1944 19.4368 28.0046 19.3101C27.8149 19.1835 27.6669 19.0033 27.5795 18.7926C27.4921 18.5818 27.4692 18.3498 27.5136 18.126C27.5581 17.9022 27.6679 17.6966 27.8292 17.5353C27.9905 17.3739 28.196 17.264 28.4198 17.2194C28.6436 17.1748 28.8755 17.1976 29.0864 17.2849C29.2972 17.3722 29.4774 17.5201 29.6041 17.7098C29.7309 17.8995 29.7986 18.1225 29.7986 18.3507C29.7992 18.5022 29.7699 18.6524 29.7124 18.7926C29.6549 18.9327 29.5703 19.0602 29.4634 19.1676C29.3565 19.275 29.2294 19.3602 29.0895 19.4184C28.9496 19.4766 28.7996 19.5066 28.6481 19.5067L28.6457 19.5042ZM34.1071 10H12.8929C12.1256 10 11.3898 10.3048 10.8473 10.8473C10.3048 11.3898 10 12.1256 10 12.8929V34.1071C10 34.8744 10.3048 35.6102 10.8473 36.1527C11.3898 36.6952 12.1256 37 12.8929 37H34.1071C34.8744 37 35.6102 36.6952 36.1527 36.1527C36.6952 35.6102 37 34.8744 37 34.1071V12.8929C37 12.1256 36.6952 11.3898 36.1527 10.8473C35.6102 10.3048 34.8744 10 34.1071 10ZM33.0754 27.4777C32.9976 29.0223 32.645 30.391 31.5174 31.5156C30.3898 32.6402 29.0223 33 27.4795 33.0735C25.8878 33.1633 21.1158 33.1633 19.5241 33.0735C17.9795 32.9958 16.6156 32.6426 15.4862 31.5156C14.3568 30.3886 14.0018 29.0193 13.9283 27.4777C13.8385 25.8854 13.8385 21.1128 13.9283 19.5223C14.006 17.9777 14.3544 16.609 15.4862 15.4844C16.618 14.3598 17.9855 14.0042 19.5241 13.9307C21.1158 13.8409 25.8878 13.8409 27.4795 13.9307C29.0242 14.0084 30.3922 14.3616 31.5174 15.4886C32.6426 16.6156 33.0018 17.9849 33.0754 19.5296C33.1652 21.1158 33.1652 25.8842 33.0754 27.4777Z" fill="#F0F0F0"/>
</svg>
