<svg width="138" height="85" viewBox="0 0 138 85" fill="none" xmlns="http://www.w3.org/2000/svg">
<path d="M3.456 78.47C3.456 78.854 3.504 79.136 3.6 79.316C3.708 79.484 3.906 79.604 4.194 79.676C4.494 79.748 4.962 79.784 5.598 79.784C5.634 79.784 5.652 79.82 5.652 79.892C5.652 79.964 5.634 80 5.598 80C5.106 80 4.722 79.994 4.446 79.982L2.88 79.964L1.674 79.982C1.446 79.994 1.14 80 0.756 80C0.732 80 0.72 79.964 0.72 79.892C0.72 79.82 0.732 79.784 0.756 79.784C1.212 79.784 1.542 79.754 1.746 79.694C1.962 79.634 2.106 79.52 2.178 79.352C2.25 79.172 2.286 78.902 2.286 78.542V70.208C2.286 69.848 2.25 69.584 2.178 69.416C2.106 69.248 1.962 69.134 1.746 69.074C1.542 69.002 1.212 68.966 0.756 68.966C0.732 68.966 0.72 68.93 0.72 68.858C0.72 68.786 0.732 68.75 0.756 68.75L1.656 68.768C2.16 68.792 2.562 68.804 2.862 68.804C3.162 68.804 3.498 68.786 3.87 68.75C4.014 68.75 4.242 68.744 4.554 68.732C4.866 68.708 5.136 68.696 5.364 68.696C6.468 68.696 7.35 68.942 8.01 69.434C8.682 69.926 9.018 70.676 9.018 71.684C9.018 72.476 8.82 73.142 8.424 73.682C8.04 74.222 7.542 74.624 6.93 74.888C6.33 75.152 5.706 75.284 5.058 75.284C4.698 75.284 4.404 75.254 4.176 75.194C4.14 75.194 4.122 75.164 4.122 75.104C4.122 75.068 4.128 75.032 4.14 74.996C4.164 74.96 4.188 74.948 4.212 74.96C4.404 75.008 4.62 75.032 4.86 75.032C5.652 75.032 6.318 74.774 6.858 74.258C7.41 73.742 7.686 72.998 7.686 72.026C7.686 71.078 7.428 70.334 6.912 69.794C6.396 69.242 5.736 68.966 4.932 68.966C4.5 68.966 4.188 68.99 3.996 69.038C3.804 69.086 3.666 69.2 3.582 69.38C3.498 69.548 3.456 69.836 3.456 70.244V78.47ZM16.7161 79.028C16.7641 79.028 16.7941 79.058 16.8061 79.118C16.8181 79.166 16.8001 79.202 16.7521 79.226L14.8981 80.108C14.8501 80.132 14.8021 80.144 14.7541 80.144C14.5981 80.144 14.4601 80.042 14.3401 79.838C14.2201 79.622 14.1421 79.334 14.1061 78.974L13.1701 79.586C12.8701 79.778 12.6061 79.916 12.3781 80C12.1501 80.084 11.9101 80.126 11.6581 80.126C11.2141 80.126 10.8661 80.012 10.6141 79.784C10.3741 79.544 10.2541 79.244 10.2541 78.884C10.2541 78.524 10.3981 78.212 10.6861 77.948C10.9741 77.684 11.4481 77.432 12.1081 77.192L14.0881 76.454V75.23C14.0881 73.886 13.7101 73.214 12.9541 73.214C12.5461 73.214 12.2341 73.352 12.0181 73.628C11.8141 73.892 11.6761 74.198 11.6041 74.546C11.5681 74.762 11.5021 74.942 11.4061 75.086C11.3101 75.218 11.1481 75.284 10.9201 75.284C10.7281 75.284 10.5781 75.23 10.4701 75.122C10.3741 75.014 10.3261 74.888 10.3261 74.744C10.3261 74.456 10.5121 74.168 10.8841 73.88C11.2561 73.592 11.7001 73.352 12.2161 73.16C12.7321 72.968 13.1941 72.872 13.6021 72.872C14.0941 72.872 14.4661 73.028 14.7181 73.34C14.9701 73.652 15.0961 74.102 15.0961 74.69V78.056C15.0961 78.476 15.1501 78.782 15.2581 78.974C15.3661 79.166 15.5461 79.262 15.7981 79.262C16.0261 79.262 16.3201 79.184 16.6801 79.028H16.7161ZM14.0881 78.722V78.632V76.706L12.4141 77.354C12.0781 77.486 11.8321 77.642 11.6761 77.822C11.5321 77.99 11.4601 78.194 11.4601 78.434C11.4601 78.722 11.5501 78.968 11.7301 79.172C11.9221 79.364 12.1681 79.46 12.4681 79.46C12.7081 79.46 12.9961 79.364 13.3321 79.172L14.0881 78.722ZM17.5071 80C17.4711 80 17.4531 79.964 17.4531 79.892C17.4531 79.82 17.4711 79.784 17.5071 79.784C17.8311 79.784 18.0711 79.754 18.2271 79.694C18.3831 79.622 18.4911 79.502 18.5511 79.334C18.6111 79.154 18.6411 78.89 18.6411 78.542V69.236C18.6411 68.804 18.5991 68.492 18.5151 68.3C18.4311 68.108 18.2811 68.012 18.0651 68.012C17.8851 68.012 17.6091 68.096 17.2371 68.264H17.2011C17.1651 68.264 17.1351 68.234 17.1111 68.174C17.0991 68.114 17.1111 68.078 17.1471 68.066L19.4511 66.968C19.4751 66.956 19.5051 66.95 19.5411 66.95C19.5651 66.95 19.5951 66.968 19.6311 67.004C19.6791 67.028 19.7031 67.058 19.7031 67.094V78.542C19.7031 78.89 19.7271 79.148 19.7751 79.316C19.8351 79.484 19.9431 79.604 20.0991 79.676C20.2551 79.748 20.4951 79.784 20.8191 79.784C20.8551 79.784 20.8731 79.82 20.8731 79.892C20.8731 79.964 20.8551 80 20.8191 80C20.5551 80 20.3391 79.994 20.1711 79.982L19.1631 79.964L18.1911 79.982C18.0231 79.994 17.7951 80 17.5071 80ZM28.8977 79.028C28.9457 79.028 28.9757 79.058 28.9877 79.118C28.9997 79.166 28.9817 79.202 28.9337 79.226L27.0797 80.108C27.0317 80.132 26.9837 80.144 26.9357 80.144C26.7797 80.144 26.6417 80.042 26.5217 79.838C26.4017 79.622 26.3237 79.334 26.2877 78.974L25.3517 79.586C25.0517 79.778 24.7877 79.916 24.5597 80C24.3317 80.084 24.0917 80.126 23.8397 80.126C23.3957 80.126 23.0477 80.012 22.7957 79.784C22.5557 79.544 22.4357 79.244 22.4357 78.884C22.4357 78.524 22.5797 78.212 22.8677 77.948C23.1557 77.684 23.6297 77.432 24.2897 77.192L26.2697 76.454V75.23C26.2697 73.886 25.8917 73.214 25.1357 73.214C24.7277 73.214 24.4157 73.352 24.1997 73.628C23.9957 73.892 23.8577 74.198 23.7857 74.546C23.7497 74.762 23.6837 74.942 23.5877 75.086C23.4917 75.218 23.3297 75.284 23.1017 75.284C22.9097 75.284 22.7597 75.23 22.6517 75.122C22.5557 75.014 22.5077 74.888 22.5077 74.744C22.5077 74.456 22.6937 74.168 23.0657 73.88C23.4377 73.592 23.8817 73.352 24.3977 73.16C24.9137 72.968 25.3757 72.872 25.7837 72.872C26.2757 72.872 26.6477 73.028 26.8997 73.34C27.1517 73.652 27.2777 74.102 27.2777 74.69V78.056C27.2777 78.476 27.3317 78.782 27.4397 78.974C27.5477 79.166 27.7277 79.262 27.9797 79.262C28.2077 79.262 28.5017 79.184 28.8617 79.028H28.8977ZM26.2697 78.722V78.632V76.706L24.5957 77.354C24.2597 77.486 24.0137 77.642 23.8577 77.822C23.7137 77.99 23.6417 78.194 23.6417 78.434C23.6417 78.722 23.7317 78.968 23.9117 79.172C24.1037 79.364 24.3497 79.46 24.6497 79.46C24.8897 79.46 25.1777 79.364 25.5137 79.172L26.2697 78.722ZM36.5158 73.052C36.5398 73.052 36.5518 73.088 36.5518 73.16C36.5518 73.232 36.5398 73.268 36.5158 73.268C36.2158 73.268 35.9578 73.37 35.7418 73.574C35.5258 73.766 35.3218 74.102 35.1298 74.582L32.8798 79.982C32.8558 80.042 32.7898 80.072 32.6818 80.072C32.5738 80.072 32.5078 80.042 32.4838 79.982L29.9638 74.546C29.7238 74.03 29.5198 73.688 29.3518 73.52C29.1958 73.352 28.9978 73.268 28.7578 73.268C28.7218 73.268 28.7038 73.232 28.7038 73.16C28.7038 73.088 28.7218 73.052 28.7578 73.052C28.9978 73.052 29.1838 73.058 29.3158 73.07L29.9998 73.088L31.1698 73.07C31.3498 73.058 31.5898 73.052 31.8898 73.052C31.9258 73.052 31.9438 73.088 31.9438 73.16C31.9438 73.232 31.9258 73.268 31.8898 73.268C31.1698 73.268 30.8098 73.412 30.8098 73.7C30.8098 73.784 30.8338 73.874 30.8818 73.97L33.0778 78.614L34.7698 74.492C34.8538 74.264 34.8958 74.09 34.8958 73.97C34.8958 73.73 34.7818 73.556 34.5538 73.448C34.3258 73.328 33.9658 73.268 33.4738 73.268C33.4498 73.268 33.4378 73.232 33.4378 73.16C33.4378 73.088 33.4498 73.052 33.4738 73.052C33.7978 73.052 34.0438 73.058 34.2118 73.07L35.2918 73.088L35.9398 73.07C36.0598 73.058 36.2518 73.052 36.5158 73.052ZM41.5125 72.89C41.7765 72.89 42.0285 72.962 42.2685 73.106C42.5085 73.25 42.6285 73.424 42.6285 73.628C42.6285 73.784 42.5745 73.916 42.4665 74.024C42.3705 74.132 42.2265 74.186 42.0345 74.186C41.9265 74.186 41.8305 74.168 41.7465 74.132C41.6745 74.084 41.5845 74.018 41.4765 73.934C41.3685 73.838 41.2665 73.766 41.1705 73.718C41.0745 73.67 40.9605 73.646 40.8285 73.646C40.6725 73.646 40.5045 73.712 40.3245 73.844C40.1565 73.976 39.8865 74.258 39.5145 74.69V78.542C39.5145 78.902 39.5565 79.166 39.6405 79.334C39.7365 79.502 39.9045 79.622 40.1445 79.694C40.3845 79.754 40.7565 79.784 41.2605 79.784C41.3085 79.784 41.3325 79.82 41.3325 79.892C41.3325 79.964 41.3085 80 41.2605 80C40.8765 80 40.5705 79.994 40.3425 79.982L39.0105 79.964L38.0205 79.982C37.8645 79.994 37.6485 80 37.3725 80C37.3365 80 37.3185 79.964 37.3185 79.892C37.3185 79.82 37.3365 79.784 37.3725 79.784C37.6965 79.784 37.9365 79.754 38.0925 79.694C38.2485 79.622 38.3505 79.502 38.3985 79.334C38.4585 79.166 38.4885 78.902 38.4885 78.542V74.978C38.4885 74.57 38.4405 74.276 38.3445 74.096C38.2485 73.916 38.0865 73.826 37.8585 73.826C37.6665 73.826 37.3425 73.916 36.8865 74.096H36.8505C36.8025 74.096 36.7665 74.072 36.7425 74.024C36.7305 73.964 36.7485 73.922 36.7965 73.898L38.8845 72.908L38.9925 72.89C39.1005 72.89 39.2145 73.028 39.3345 73.304C39.4545 73.58 39.5145 73.934 39.5145 74.366V74.384C40.0065 73.808 40.3965 73.418 40.6845 73.214C40.9725 72.998 41.2485 72.89 41.5125 72.89ZM50.3079 79.028C50.3559 79.028 50.3859 79.058 50.3979 79.118C50.4099 79.166 50.3919 79.202 50.3439 79.226L48.4899 80.108C48.4419 80.132 48.3939 80.144 48.3459 80.144C48.1899 80.144 48.0519 80.042 47.9319 79.838C47.8119 79.622 47.7339 79.334 47.6979 78.974L46.7619 79.586C46.4619 79.778 46.1979 79.916 45.9699 80C45.7419 80.084 45.5019 80.126 45.2499 80.126C44.8059 80.126 44.4579 80.012 44.2059 79.784C43.9659 79.544 43.8459 79.244 43.8459 78.884C43.8459 78.524 43.9899 78.212 44.2779 77.948C44.5659 77.684 45.0399 77.432 45.6999 77.192L47.6799 76.454V75.23C47.6799 73.886 47.3019 73.214 46.5459 73.214C46.1379 73.214 45.8259 73.352 45.6099 73.628C45.4059 73.892 45.2679 74.198 45.1959 74.546C45.1599 74.762 45.0939 74.942 44.9979 75.086C44.9019 75.218 44.7399 75.284 44.5119 75.284C44.3199 75.284 44.1699 75.23 44.0619 75.122C43.9659 75.014 43.9179 74.888 43.9179 74.744C43.9179 74.456 44.1039 74.168 44.4759 73.88C44.8479 73.592 45.2919 73.352 45.8079 73.16C46.3239 72.968 46.7859 72.872 47.1939 72.872C47.6859 72.872 48.0579 73.028 48.3099 73.34C48.5619 73.652 48.6879 74.102 48.6879 74.69V78.056C48.6879 78.476 48.7419 78.782 48.8499 78.974C48.9579 79.166 49.1379 79.262 49.3899 79.262C49.6179 79.262 49.9119 79.184 50.2719 79.028H50.3079ZM47.6799 78.722V78.632V76.706L46.0059 77.354C45.6699 77.486 45.4239 77.642 45.2679 77.822C45.1239 77.99 45.0519 78.194 45.0519 78.434C45.0519 78.722 45.1419 78.968 45.3219 79.172C45.5139 79.364 45.7599 79.46 46.0599 79.46C46.2999 79.46 46.5879 79.364 46.9239 79.172L47.6799 78.722ZM52.1969 74.15C52.1969 74.57 52.3349 74.906 52.6109 75.158C52.8869 75.398 53.2889 75.656 53.8169 75.932C54.2369 76.148 54.5609 76.334 54.7889 76.49C55.0289 76.646 55.2329 76.85 55.4009 77.102C55.5689 77.354 55.6529 77.66 55.6529 78.02C55.6529 78.632 55.4249 79.148 54.9689 79.568C54.5129 79.988 53.8949 80.198 53.1149 80.198C52.4789 80.198 51.9029 80.018 51.3869 79.658C51.3149 79.61 51.2789 79.538 51.2789 79.442L51.2429 78.038C51.2429 78.002 51.2729 77.984 51.3329 77.984C51.4049 77.972 51.4469 77.984 51.4589 78.02C51.6869 78.62 51.9809 79.076 52.3409 79.388C52.7129 79.7 53.1389 79.856 53.6189 79.856C54.0149 79.856 54.3149 79.76 54.5189 79.568C54.7229 79.376 54.8129 79.094 54.7889 78.722C54.7769 78.266 54.6329 77.918 54.3569 77.678C54.0929 77.426 53.6909 77.168 53.1509 76.904C52.7549 76.712 52.4369 76.538 52.1969 76.382C51.9689 76.226 51.7709 76.022 51.6029 75.77C51.4469 75.518 51.3689 75.206 51.3689 74.834C51.3689 74.186 51.6089 73.694 52.0889 73.358C52.5809 73.01 53.1569 72.836 53.8169 72.836C54.2969 72.836 54.7349 72.926 55.1309 73.106C55.2029 73.13 55.2449 73.16 55.2569 73.196C55.2809 73.22 55.2929 73.256 55.2929 73.304C55.2929 73.544 55.2869 73.73 55.2749 73.862L55.2569 74.618C55.2569 74.642 55.2209 74.654 55.1489 74.654C55.0769 74.654 55.0409 74.642 55.0409 74.618C55.0409 74.366 54.9449 74.132 54.7529 73.916C54.5609 73.688 54.3209 73.508 54.0329 73.376C53.7449 73.244 53.4569 73.178 53.1689 73.178C52.8689 73.178 52.6289 73.262 52.4489 73.43C52.2809 73.586 52.1969 73.826 52.1969 74.15ZM68.0777 68.552C68.8337 68.552 69.4697 68.606 69.9857 68.714C70.5017 68.822 71.0177 69.008 71.5337 69.272C71.6177 69.32 71.6657 69.362 71.6777 69.398C71.6897 69.434 71.7077 69.524 71.7317 69.668L71.9477 71.81C71.9477 71.846 71.9117 71.87 71.8397 71.882C71.7797 71.882 71.7437 71.864 71.7317 71.828C71.1797 69.824 69.9437 68.822 68.0237 68.822C67.0157 68.822 66.1277 69.044 65.3597 69.488C64.5917 69.932 63.9977 70.568 63.5777 71.396C63.1577 72.212 62.9477 73.166 62.9477 74.258C62.9477 75.302 63.1757 76.262 63.6317 77.138C64.0997 78.002 64.7237 78.686 65.5037 79.19C66.2957 79.694 67.1537 79.946 68.0777 79.946C69.0617 79.946 69.8597 79.706 70.4717 79.226C71.0837 78.746 71.5517 78.014 71.8757 77.03C71.8757 77.006 71.9057 76.994 71.9657 76.994C72.0497 76.994 72.0917 77.012 72.0917 77.048L71.9117 79.028C71.8997 79.172 71.8817 79.262 71.8577 79.298C71.8337 79.334 71.7857 79.376 71.7137 79.424C71.0897 79.724 70.5017 79.934 69.9497 80.054C69.4097 80.174 68.7857 80.234 68.0777 80.234C66.8177 80.234 65.6897 79.988 64.6937 79.496C63.7097 78.992 62.9417 78.29 62.3897 77.39C61.8377 76.49 61.5617 75.458 61.5617 74.294C61.5617 73.166 61.8437 72.17 62.4077 71.306C62.9717 70.43 63.7457 69.752 64.7297 69.272C65.7257 68.792 66.8417 68.552 68.0777 68.552ZM80.4895 79.028C80.5375 79.028 80.5675 79.058 80.5795 79.118C80.5915 79.166 80.5735 79.202 80.5255 79.226L78.6715 80.108C78.6235 80.132 78.5755 80.144 78.5275 80.144C78.3715 80.144 78.2335 80.042 78.1135 79.838C77.9935 79.622 77.9155 79.334 77.8795 78.974L76.9435 79.586C76.6435 79.778 76.3795 79.916 76.1515 80C75.9235 80.084 75.6835 80.126 75.4315 80.126C74.9875 80.126 74.6395 80.012 74.3875 79.784C74.1475 79.544 74.0275 79.244 74.0275 78.884C74.0275 78.524 74.1715 78.212 74.4595 77.948C74.7475 77.684 75.2215 77.432 75.8815 77.192L77.8615 76.454V75.23C77.8615 73.886 77.4835 73.214 76.7275 73.214C76.3195 73.214 76.0075 73.352 75.7915 73.628C75.5875 73.892 75.4495 74.198 75.3775 74.546C75.3415 74.762 75.2755 74.942 75.1795 75.086C75.0835 75.218 74.9215 75.284 74.6935 75.284C74.5015 75.284 74.3515 75.23 74.2435 75.122C74.1475 75.014 74.0995 74.888 74.0995 74.744C74.0995 74.456 74.2855 74.168 74.6575 73.88C75.0295 73.592 75.4735 73.352 75.9895 73.16C76.5055 72.968 76.9675 72.872 77.3755 72.872C77.8675 72.872 78.2395 73.028 78.4915 73.34C78.7435 73.652 78.8695 74.102 78.8695 74.69V78.056C78.8695 78.476 78.9235 78.782 79.0315 78.974C79.1395 79.166 79.3195 79.262 79.5715 79.262C79.7995 79.262 80.0935 79.184 80.4535 79.028H80.4895ZM77.8615 78.722V78.632V76.706L76.1875 77.354C75.8515 77.486 75.6055 77.642 75.4495 77.822C75.3055 77.99 75.2335 78.194 75.2335 78.434C75.2335 78.722 75.3235 78.968 75.5035 79.172C75.6955 79.364 75.9415 79.46 76.2415 79.46C76.4815 79.46 76.7695 79.364 77.1055 79.172L77.8615 78.722ZM86.3025 66.932C86.9145 66.932 87.4125 67.028 87.7965 67.22C88.1925 67.4 88.3905 67.622 88.3905 67.886C88.3905 68.066 88.3245 68.21 88.1925 68.318C88.0725 68.414 87.9285 68.462 87.7605 68.462C87.6165 68.462 87.4905 68.426 87.3825 68.354C87.2745 68.282 87.1605 68.162 87.0405 67.994C86.8605 67.742 86.6625 67.556 86.4465 67.436C86.2425 67.304 85.9845 67.238 85.6725 67.238C84.9765 67.238 84.4245 67.64 84.0165 68.444C83.6085 69.248 83.4045 70.466 83.4045 72.098V73.25C83.9565 73.238 84.7245 73.178 85.7085 73.07C85.7445 73.07 85.7745 73.112 85.7985 73.196C85.8225 73.28 85.8345 73.382 85.8345 73.502C85.8345 73.598 85.8165 73.7 85.7805 73.808C85.7445 73.904 85.7025 73.946 85.6545 73.934C84.9585 73.766 84.2085 73.67 83.4045 73.646V78.542C83.4045 78.914 83.4465 79.184 83.5305 79.352C83.6145 79.52 83.7765 79.634 84.0165 79.694C84.2565 79.754 84.6405 79.784 85.1685 79.784C85.2045 79.784 85.2225 79.82 85.2225 79.892C85.2225 79.964 85.2045 80 85.1685 80L84.0165 79.982C83.7645 79.97 83.3805 79.964 82.8645 79.964L81.8565 79.982C81.6885 79.994 81.4485 80 81.1365 80C81.1005 80 81.0825 79.964 81.0825 79.892C81.0825 79.82 81.1005 79.784 81.1365 79.784C81.4965 79.784 81.7605 79.754 81.9285 79.694C82.0965 79.622 82.2105 79.502 82.2705 79.334C82.3425 79.166 82.3785 78.902 82.3785 78.542V74.492C82.3785 74.18 82.3485 73.964 82.2885 73.844C82.2285 73.712 82.1085 73.628 81.9285 73.592C81.7605 73.544 81.4725 73.52 81.0645 73.52C81.0285 73.52 81.0105 73.484 81.0105 73.412C81.0105 73.328 81.0285 73.286 81.0645 73.286C81.5565 73.286 81.8865 73.232 82.0545 73.124C82.2345 73.004 82.3305 72.788 82.3425 72.476C82.4025 70.532 82.7565 69.122 83.4045 68.246C84.0645 67.37 85.0305 66.932 86.3025 66.932ZM92.5069 78.992C92.5429 78.992 92.5729 79.016 92.5969 79.064C92.6329 79.1 92.6389 79.136 92.6149 79.172C91.8229 79.868 90.9469 80.216 89.9869 80.216C89.2909 80.216 88.6969 80.054 88.2049 79.73C87.7129 79.406 87.3349 78.98 87.0709 78.452C86.8189 77.924 86.6929 77.36 86.6929 76.76C86.6929 76.052 86.8609 75.404 87.1969 74.816C87.5329 74.216 87.9889 73.748 88.5649 73.412C89.1529 73.064 89.7949 72.89 90.4909 72.89C91.1629 72.89 91.6789 73.07 92.0389 73.43C92.3989 73.79 92.5789 74.294 92.5789 74.942C92.5789 75.11 92.5609 75.23 92.5249 75.302C92.5009 75.374 92.4529 75.41 92.3809 75.41L87.9169 75.428C87.8929 75.692 87.8809 75.908 87.8809 76.076C87.8809 77.12 88.1269 77.966 88.6189 78.614C89.1109 79.262 89.8009 79.586 90.6889 79.586C91.0489 79.586 91.3549 79.538 91.6069 79.442C91.8709 79.346 92.1649 79.196 92.4889 78.992H92.5069ZM89.8969 73.25C89.3809 73.25 88.9549 73.424 88.6189 73.772C88.2829 74.108 88.0609 74.582 87.9529 75.194L91.3729 75.122C91.3729 74.51 91.2409 74.048 90.9769 73.736C90.7129 73.412 90.3529 73.25 89.8969 73.25ZM95.8586 70.784C95.6066 70.784 95.4086 70.718 95.2646 70.586C95.1326 70.454 95.0666 70.268 95.0666 70.028C95.0666 69.788 95.1326 69.602 95.2646 69.47C95.4086 69.338 95.6066 69.272 95.8586 69.272C96.0986 69.272 96.2846 69.338 96.4166 69.47C96.5486 69.602 96.6146 69.788 96.6146 70.028C96.6146 70.268 96.5486 70.454 96.4166 70.586C96.2846 70.718 96.0986 70.784 95.8586 70.784ZM94.3466 80C94.3226 80 94.3106 79.964 94.3106 79.892C94.3106 79.82 94.3226 79.784 94.3466 79.784C94.6706 79.784 94.9106 79.754 95.0666 79.694C95.2346 79.622 95.3486 79.502 95.4086 79.334C95.4686 79.154 95.4986 78.89 95.4986 78.542V75.176C95.4986 74.744 95.4506 74.432 95.3546 74.24C95.2706 74.048 95.1206 73.952 94.9046 73.952C94.6886 73.952 94.4186 74.036 94.0946 74.204H94.0766C94.0286 74.204 93.9926 74.174 93.9686 74.114C93.9446 74.054 93.9506 74.012 93.9866 73.988L96.3266 72.908L96.3986 72.89C96.4226 72.89 96.4526 72.908 96.4886 72.944C96.5246 72.968 96.5426 72.998 96.5426 73.034C96.5426 73.118 96.5366 73.358 96.5246 73.754C96.5126 74.15 96.5066 74.618 96.5066 75.158V78.542C96.5066 78.902 96.5366 79.166 96.5966 79.334C96.6566 79.502 96.7646 79.622 96.9206 79.694C97.0766 79.754 97.3166 79.784 97.6406 79.784C97.6766 79.784 97.6946 79.82 97.6946 79.892C97.6946 79.964 97.6766 80 97.6406 80C97.3646 80 97.1426 79.994 96.9746 79.982L96.0026 79.964L95.0306 79.982C94.8626 79.994 94.6346 80 94.3466 80ZM107.224 79.784C107.26 79.784 107.278 79.82 107.278 79.892C107.278 79.964 107.26 80 107.224 80C106.948 80 106.732 79.994 106.576 79.982L105.604 79.964L104.614 79.982C104.458 79.994 104.242 80 103.966 80C103.93 80 103.912 79.964 103.912 79.892C103.912 79.82 103.93 79.784 103.966 79.784C104.29 79.784 104.53 79.754 104.686 79.694C104.842 79.622 104.944 79.502 104.992 79.334C105.052 79.166 105.082 78.902 105.082 78.542V75.626C105.082 74.918 104.944 74.396 104.668 74.06C104.404 73.724 103.99 73.556 103.426 73.556C103.054 73.556 102.676 73.658 102.292 73.862C101.92 74.054 101.578 74.324 101.266 74.672V78.542C101.266 78.902 101.29 79.166 101.338 79.334C101.398 79.502 101.506 79.622 101.662 79.694C101.818 79.754 102.058 79.784 102.382 79.784C102.418 79.784 102.436 79.82 102.436 79.892C102.436 79.964 102.418 80 102.382 80C102.106 80 101.89 79.994 101.734 79.982L100.762 79.964L99.7725 79.982C99.6165 79.994 99.4005 80 99.1245 80C99.0885 80 99.0705 79.964 99.0705 79.892C99.0705 79.82 99.0885 79.784 99.1245 79.784C99.4485 79.784 99.6885 79.754 99.8445 79.694C100 79.622 100.102 79.502 100.15 79.334C100.21 79.166 100.24 78.902 100.24 78.542V74.978C100.24 74.57 100.192 74.276 100.096 74.096C100 73.916 99.8385 73.826 99.6105 73.826C99.4185 73.826 99.0945 73.916 98.6385 74.096H98.6025C98.5545 74.096 98.5185 74.072 98.4945 74.024C98.4825 73.964 98.5005 73.922 98.5485 73.898L100.636 72.908L100.744 72.89C100.852 72.89 100.966 73.028 101.086 73.304C101.206 73.58 101.266 73.934 101.266 74.366C101.722 73.838 102.172 73.448 102.616 73.196C103.072 72.944 103.54 72.818 104.02 72.818C104.692 72.818 105.208 73.004 105.568 73.376C105.928 73.748 106.108 74.294 106.108 75.014V78.542C106.108 78.902 106.132 79.166 106.18 79.334C106.24 79.502 106.348 79.622 106.504 79.694C106.66 79.754 106.9 79.784 107.224 79.784ZM115.083 79.028C115.131 79.028 115.161 79.058 115.173 79.118C115.185 79.166 115.167 79.202 115.119 79.226L113.265 80.108C113.217 80.132 113.169 80.144 113.121 80.144C112.965 80.144 112.827 80.042 112.707 79.838C112.587 79.622 112.509 79.334 112.473 78.974L111.537 79.586C111.237 79.778 110.973 79.916 110.745 80C110.517 80.084 110.277 80.126 110.025 80.126C109.581 80.126 109.233 80.012 108.981 79.784C108.741 79.544 108.621 79.244 108.621 78.884C108.621 78.524 108.765 78.212 109.053 77.948C109.341 77.684 109.815 77.432 110.475 77.192L112.455 76.454V75.23C112.455 73.886 112.077 73.214 111.321 73.214C110.913 73.214 110.601 73.352 110.385 73.628C110.181 73.892 110.043 74.198 109.971 74.546C109.935 74.762 109.869 74.942 109.773 75.086C109.677 75.218 109.515 75.284 109.287 75.284C109.095 75.284 108.945 75.23 108.837 75.122C108.741 75.014 108.693 74.888 108.693 74.744C108.693 74.456 108.879 74.168 109.251 73.88C109.623 73.592 110.067 73.352 110.583 73.16C111.099 72.968 111.561 72.872 111.969 72.872C112.461 72.872 112.833 73.028 113.085 73.34C113.337 73.652 113.463 74.102 113.463 74.69V78.056C113.463 78.476 113.517 78.782 113.625 78.974C113.733 79.166 113.913 79.262 114.165 79.262C114.393 79.262 114.687 79.184 115.047 79.028H115.083ZM112.455 78.722V78.632V76.706L110.781 77.354C110.445 77.486 110.199 77.642 110.043 77.822C109.899 77.99 109.827 78.194 109.827 78.434C109.827 78.722 109.917 78.968 110.097 79.172C110.289 79.364 110.535 79.46 110.835 79.46C111.075 79.46 111.363 79.364 111.699 79.172L112.455 78.722ZM124.262 78.974C124.31 78.974 124.34 79.004 124.352 79.064C124.376 79.124 124.37 79.166 124.334 79.19L122.354 80.126C122.282 80.15 122.234 80.162 122.21 80.162C122.054 80.162 121.922 80.03 121.814 79.766C121.706 79.502 121.646 79.136 121.634 78.668C121.19 79.136 120.722 79.514 120.23 79.802C119.75 80.09 119.21 80.234 118.61 80.234C118.106 80.234 117.638 80.09 117.206 79.802C116.786 79.514 116.444 79.112 116.18 78.596C115.928 78.068 115.802 77.468 115.802 76.796C115.802 75.944 116.012 75.218 116.432 74.618C116.852 74.018 117.38 73.568 118.016 73.268C118.652 72.968 119.282 72.818 119.906 72.818C120.542 72.818 121.118 72.974 121.634 73.286V69.254C121.634 68.822 121.586 68.51 121.49 68.318C121.406 68.126 121.256 68.03 121.04 68.03C120.884 68.03 120.608 68.114 120.212 68.282H120.176C120.128 68.282 120.092 68.258 120.068 68.21C120.056 68.15 120.068 68.108 120.104 68.084L122.39 66.968C122.414 66.956 122.444 66.95 122.48 66.95C122.504 66.95 122.534 66.968 122.57 67.004C122.618 67.028 122.642 67.058 122.642 67.094V78.02C122.642 78.452 122.69 78.764 122.786 78.956C122.894 79.148 123.062 79.244 123.29 79.244C123.638 79.244 123.95 79.16 124.226 78.992L124.262 78.974ZM119.312 79.586C119.744 79.586 120.146 79.484 120.518 79.28C120.89 79.064 121.262 78.764 121.634 78.38V74.42C121.346 74.024 121.028 73.718 120.68 73.502C120.332 73.286 119.912 73.178 119.42 73.178C118.664 73.178 118.064 73.448 117.62 73.988C117.188 74.516 116.972 75.272 116.972 76.256C116.972 76.916 117.074 77.498 117.278 78.002C117.482 78.506 117.758 78.896 118.106 79.172C118.466 79.448 118.868 79.586 119.312 79.586ZM131.835 79.028C131.883 79.028 131.913 79.058 131.925 79.118C131.937 79.166 131.919 79.202 131.871 79.226L130.017 80.108C129.969 80.132 129.921 80.144 129.873 80.144C129.717 80.144 129.579 80.042 129.459 79.838C129.339 79.622 129.261 79.334 129.225 78.974L128.289 79.586C127.989 79.778 127.725 79.916 127.497 80C127.269 80.084 127.029 80.126 126.777 80.126C126.333 80.126 125.985 80.012 125.733 79.784C125.493 79.544 125.373 79.244 125.373 78.884C125.373 78.524 125.517 78.212 125.805 77.948C126.093 77.684 126.567 77.432 127.227 77.192L129.207 76.454V75.23C129.207 73.886 128.829 73.214 128.073 73.214C127.665 73.214 127.353 73.352 127.137 73.628C126.933 73.892 126.795 74.198 126.723 74.546C126.687 74.762 126.621 74.942 126.525 75.086C126.429 75.218 126.267 75.284 126.039 75.284C125.847 75.284 125.697 75.23 125.589 75.122C125.493 75.014 125.445 74.888 125.445 74.744C125.445 74.456 125.631 74.168 126.003 73.88C126.375 73.592 126.819 73.352 127.335 73.16C127.851 72.968 128.313 72.872 128.721 72.872C129.213 72.872 129.585 73.028 129.837 73.34C130.089 73.652 130.215 74.102 130.215 74.69V78.056C130.215 78.476 130.269 78.782 130.377 78.974C130.485 79.166 130.665 79.262 130.917 79.262C131.145 79.262 131.439 79.184 131.799 79.028H131.835ZM129.207 78.722V78.632V76.706L127.533 77.354C127.197 77.486 126.951 77.642 126.795 77.822C126.651 77.99 126.579 78.194 126.579 78.434C126.579 78.722 126.669 78.968 126.849 79.172C127.041 79.364 127.287 79.46 127.587 79.46C127.827 79.46 128.115 79.364 128.451 79.172L129.207 78.722ZM133.724 74.15C133.724 74.57 133.862 74.906 134.138 75.158C134.414 75.398 134.816 75.656 135.344 75.932C135.764 76.148 136.088 76.334 136.316 76.49C136.556 76.646 136.76 76.85 136.928 77.102C137.096 77.354 137.18 77.66 137.18 78.02C137.18 78.632 136.952 79.148 136.496 79.568C136.04 79.988 135.422 80.198 134.642 80.198C134.006 80.198 133.43 80.018 132.914 79.658C132.842 79.61 132.806 79.538 132.806 79.442L132.77 78.038C132.77 78.002 132.8 77.984 132.86 77.984C132.932 77.972 132.974 77.984 132.986 78.02C133.214 78.62 133.508 79.076 133.868 79.388C134.24 79.7 134.666 79.856 135.146 79.856C135.542 79.856 135.842 79.76 136.046 79.568C136.25 79.376 136.34 79.094 136.316 78.722C136.304 78.266 136.16 77.918 135.884 77.678C135.62 77.426 135.218 77.168 134.678 76.904C134.282 76.712 133.964 76.538 133.724 76.382C133.496 76.226 133.298 76.022 133.13 75.77C132.974 75.518 132.896 75.206 132.896 74.834C132.896 74.186 133.136 73.694 133.616 73.358C134.108 73.01 134.684 72.836 135.344 72.836C135.824 72.836 136.262 72.926 136.658 73.106C136.73 73.13 136.772 73.16 136.784 73.196C136.808 73.22 136.82 73.256 136.82 73.304C136.82 73.544 136.814 73.73 136.802 73.862L136.784 74.618C136.784 74.642 136.748 74.654 136.676 74.654C136.604 74.654 136.568 74.642 136.568 74.618C136.568 74.366 136.472 74.132 136.28 73.916C136.088 73.688 135.848 73.508 135.56 73.376C135.272 73.244 134.984 73.178 134.696 73.178C134.396 73.178 134.156 73.262 133.976 73.43C133.808 73.586 133.724 73.826 133.724 74.15Z" fill="#F0F0F0"/>
<g clip-path="url(#clip0_4_277)">
<path d="M66.7702 54.862C76.597 54.862 84.5633 53.9216 84.5633 52.7615C84.5633 51.6013 76.597 50.6609 66.7702 50.6609C56.9433 50.6609 48.9771 51.6013 48.9771 52.7615C48.9771 53.9216 56.9433 54.862 66.7702 54.862Z" fill="#B2784A"/>
<path fill-rule="evenodd" clip-rule="evenodd" d="M85.0352 39.9178C86.0289 37.3692 86.5402 34.6377 86.5402 31.8793H83.4264C83.4264 34.2158 82.9969 36.5297 82.1624 38.6883C81.3278 40.8472 80.1045 42.8087 78.5625 44.461C77.0202 46.1132 75.1894 47.4237 73.1746 48.3179C71.1599 49.2122 69.0004 49.6723 66.8195 49.6723C64.6387 49.6723 62.4792 49.2122 60.4644 48.3179C58.4495 47.4237 56.6188 46.1132 55.0767 44.461C53.5346 42.8087 52.3113 40.8472 51.4768 38.6883C50.6422 36.5297 50.2126 34.2158 50.2126 31.8793H47C47 34.6377 47.5114 37.3692 48.5049 39.9178C49.4984 42.4664 50.9547 44.782 52.7905 46.7325C54.6263 48.6831 56.8058 50.2304 59.2044 51.2861C61.603 52.3416 64.1738 52.885 66.7701 52.885C69.3664 52.885 71.9373 52.3416 74.3359 51.2861C76.7345 50.2304 78.9139 48.6831 80.7498 46.7325C82.5854 44.782 84.0418 42.4664 85.0352 39.9178Z" fill="#B2784A"/>
<path fill-rule="evenodd" clip-rule="evenodd" d="M80.5387 38.0263C81.2761 36.119 81.6634 34.0777 81.6795 32.0142C79.9834 32.2804 76.2795 32.9291 73.8132 33.8563C71.8544 34.5927 70.5212 35.8684 69.244 37.0904C67.5867 38.6762 66.0237 40.1718 63.3103 40.2816C61.154 40.3688 59.8353 40.1921 57.8735 39.2931C54.4472 37.7231 51.6953 31.8793 51.6953 31.8793C51.6953 33.9887 52.0831 36.0774 52.8365 38.0263C53.59 39.9754 54.6943 41.746 56.0865 43.2377C57.4786 44.7293 59.1314 45.9126 60.9503 46.7197C62.7693 47.5271 64.7188 47.9425 66.6877 47.9425C68.6565 47.9425 70.6061 47.5271 72.4251 46.7197C74.2439 45.9126 75.8967 44.7293 77.2888 43.2377C78.6811 41.746 79.7855 39.9754 80.5387 38.0263Z" fill="#8F542E"/>
<path fill-rule="evenodd" clip-rule="evenodd" d="M88.077 36.2467C87.4881 35.6637 86.7848 35.2095 86.0115 34.9127L83.8667 40.4998L80.8137 45.6471C81.5262 46.0697 82.3187 46.3398 83.1412 46.4402C83.9634 46.5408 84.7976 46.4693 85.5909 46.2306C86.3842 45.9919 87.1194 45.591 87.7498 45.0535C88.3802 44.516 88.892 43.8535 89.2531 43.1079C89.6141 42.3623 89.8165 41.5498 89.8472 40.7219C89.8781 39.894 89.7365 39.0689 89.4318 38.2986C89.1271 37.5281 88.6657 36.8294 88.077 36.2467ZM86.6303 38.1221C86.2849 37.7801 85.8719 37.5135 85.4179 37.3393L84.1591 40.6189L82.3669 43.6402C82.7853 43.8883 83.2504 44.0468 83.733 44.1058C84.2159 44.1646 84.7055 44.1229 85.1711 43.9828C85.6369 43.8426 86.0684 43.6074 86.4383 43.2918C86.8085 42.9765 87.109 42.5875 87.3208 42.1498C87.5328 41.7122 87.6515 41.2352 87.6695 40.7494C87.6876 40.2633 87.6045 39.7789 87.4256 39.3266C87.2469 38.8744 86.9761 38.4644 86.6303 38.1221Z" fill="#B2784A"/>
<path d="M61.3344 7.41382C61.3344 7.41382 60.712 11.1873 61.3344 13.4684C62.3607 17.2303 67.2956 17.1509 67.8832 21.0057C68.4288 24.5848 64.547 29.6551 64.547 29.6551C64.547 29.6551 65.1394 26.1104 64.547 23.9712C63.562 20.4144 59.0662 20.5264 58.2453 16.9282C57.3763 13.1195 61.3344 7.41382 61.3344 7.41382Z" fill="#8F542E"/>
<path d="M63.3103 11.3678C62.0046 6.88458 67.0172 0 67.0172 0C67.0172 0 65.0648 6.06244 66.2758 9.6379C67.5462 13.389 72.3334 13.1862 73.1953 17.0517C74.2063 21.5851 68.3764 27.9252 68.3764 27.9252C68.3764 27.9252 71.3612 22.1441 70.3534 18.5344C69.2981 14.7549 64.4075 15.1353 63.3103 11.3678Z" fill="#8F542E"/>
</g>
<defs>
<clipPath id="clip0_4_277">
<rect width="43" height="54.862" fill="white" transform="translate(47)"/>
</clipPath>
</defs>
</svg>
