<svg width="70" height="70" viewBox="0 0 70 70" fill="none" xmlns="http://www.w3.org/2000/svg">
<path d="M52.8571 10H17.1429C13.1975 10 10 13.1975 10 17.1429V52.8571C10 56.8025 13.1975 60 17.1429 60H52.8571C56.8025 60 60 56.8025 60 52.8571V17.1429C60 13.1975 56.7969 10 52.8571 10ZM49.2411 42.3103L47.9442 47.9342C47.7619 48.7294 47.0625 49.2857 46.2433 49.2857C32.1696 49.2857 20.7188 37.8348 20.7188 23.75C20.7188 22.9321 21.275 22.2333 22.0703 22.0513L27.6931 20.7533C28.5127 20.5633 29.3538 20.9887 29.6942 21.7647L32.2913 27.8228C32.5948 28.536 32.3898 29.3663 31.79 29.8563L28.7835 32.3214C30.6797 36.1842 33.8214 39.3248 37.6864 41.2221L40.144 38.2188C40.6288 37.6171 41.4665 37.4096 42.1797 37.7183L48.2333 40.3132C49.0067 40.6473 49.4308 41.4955 49.2411 42.3103Z" fill="#8F542E"/>
</svg>
