<svg width="47" height="47" viewBox="0 0 47 47" fill="none" xmlns="http://www.w3.org/2000/svg">
<path d="M33.1429 10H13.8571C11.7267 10 10 11.7267 10 13.8571V33.1429C10 35.2733 11.7267 37 13.8571 37H33.1429C35.2733 37 37 35.2733 37 33.1429V13.8571C37 11.7267 35.2703 10 33.1429 10ZM31.1902 27.4475L30.4899 30.4844C30.3914 30.9139 30.0138 31.2143 29.5714 31.2143C21.9716 31.2143 15.7881 25.0308 15.7881 17.425C15.7881 16.9834 16.0885 16.606 16.518 16.5077L19.5543 15.8068C19.9969 15.7042 20.451 15.9339 20.6349 16.353L22.0373 19.6243C22.2012 20.0095 22.0905 20.4578 21.7666 20.7224L20.1431 22.0536C21.167 24.1394 22.8636 25.8354 24.9506 26.8599L26.2777 25.2381C26.5395 24.9132 26.9919 24.8012 27.377 24.9679L30.646 26.3691C31.0636 26.5496 31.2926 27.0076 31.1902 27.4475Z" fill="#F0F0F0"/>
</svg>
